<svg xmlns="http://www.w3.org/2000/svg" width="1200" height="630" viewBox="0 0 1200 630" role="img" aria-label="Why email is never stored: fetched live and discarded">
  <defs>
    <linearGradient id="bg" x1="0" y1="0" x2="1" y2="1">
      <stop offset="0" stop-color="#0b1220"/>
      <stop offset="1" stop-color="#13233f"/>
    </linearGradient>
    <linearGradient id="accent" x1="0" y1="0" x2="1" y2="0">
      <stop offset="0" stop-color="#4c6ef5"/>
      <stop offset="1" stop-color="#22b8cf"/>
    </linearGradient>
  </defs>
  <rect width="1200" height="630" fill="url(#bg)"/>
  <g opacity="0.08" stroke="#fff" stroke-width="1">
    <path d="M0 158 H1200 M0 316 H1200 M0 474 H1200 M200 0 V630 M400 0 V630 M600 0 V630 M800 0 V630 M1000 0 V630"/>
  </g>
  <g transform="translate(96,150)">
    <rect x="0" y="0" width="120" height="120" rx="26" fill="url(#accent)"/>
    <rect x="26" y="44" width="68" height="46" rx="8" fill="#0b1220"/>
    <path d="M26 50 l34 24 l34 -24" fill="none" stroke="#22b8cf" stroke-width="5" stroke-linecap="round"/>
  </g>
  <text x="96" y="360" font-family="Inter, system-ui, sans-serif" font-size="68" font-weight="800" fill="#fff">Your email,</text>
  <text x="96" y="442" font-family="Inter, system-ui, sans-serif" font-size="68" font-weight="800" fill="url(#accent)">never stored</text>
  <text x="96" y="512" font-family="Inter, system-ui, sans-serif" font-size="28" font-weight="500" fill="#9fb3d1">Live-fetch vs. copy-everything &amp; what it means for you</text>
  <text x="96" y="566" font-family="Inter, system-ui, sans-serif" font-size="22" font-weight="600" fill="#22b8cf">mcpemails.com/blog</text>
</svg>
